<svg width="921" height="921" viewBox="0 0 921 921" fill="none" xmlns="http://www.w3.org/2000/svg">
<rect width="921" height="921" fill="#3744EC"/>
<mask id="mask0_13_2" style="mask-type:alpha" maskUnits="userSpaceOnUse" x="128" y="221" width="666" height="480">
<path d="M390.854 363.195C393.954 323.508 379.279 282.787 346.826 253.849C297.011 209.615 220.531 210.028 171.129 255.296C115.32 306.145 113.873 392.753 166.582 445.462C195.107 473.78 233.14 486.596 270.346 483.495C274.687 483.289 279.235 482.669 283.575 481.842C286.883 480.808 289.983 479.981 293.29 479.568C314.167 476.467 336.284 482.875 352.407 498.998C359.022 505.613 363.983 513.054 367.29 521.115C369.977 527.11 371.217 533.517 371.837 540.132C372.044 541.992 372.251 543.852 372.664 545.713C374.111 553.361 376.798 560.802 380.932 567.83C383.826 572.584 387.547 577.338 391.681 581.472C418.965 608.964 463.613 608.344 490.484 580.025C514.669 554.394 515.289 513.674 491.931 487.423C486.971 481.635 481.183 477.088 475.189 473.574C468.161 469.44 460.719 466.752 453.071 465.306C451.211 464.892 449.351 464.685 447.49 464.479C441.083 463.652 434.468 462.412 428.474 459.931C420.412 456.624 412.971 451.663 406.357 445.049C391.061 429.959 384.446 409.082 386.513 389.239C386.651 387.861 386.973 386.483 387.294 385.105C387.455 384.416 387.616 383.727 387.753 383.038C388.374 380.764 388.787 378.697 389.2 376.423C389.82 372.083 390.441 367.535 390.854 363.195Z" fill="white"/>
<path d="M531.146 558.805C528.046 598.492 542.722 639.213 575.174 668.151C624.989 712.385 701.469 711.972 750.871 666.704C806.681 615.855 808.128 529.247 755.418 476.538C726.893 448.22 688.86 435.404 651.654 438.505C647.313 438.711 642.766 439.332 638.425 440.158C635.118 441.192 632.017 442.019 628.71 442.432C607.833 445.533 585.716 439.125 569.593 423.002C562.978 416.388 558.018 408.946 554.71 400.885C552.023 394.89 550.783 388.483 550.163 381.868C549.956 380.008 549.749 378.148 549.336 376.287C547.889 368.639 545.202 361.198 541.068 354.17C538.174 349.416 534.453 344.662 530.319 340.528C503.035 313.036 458.387 313.656 431.516 341.975C407.331 367.606 406.711 408.326 430.069 434.577C435.03 440.365 440.817 444.912 446.812 448.426C453.84 452.56 461.281 455.248 468.929 456.694C470.789 457.108 472.649 457.315 474.51 457.521C480.918 458.348 487.532 459.588 493.526 462.069C501.588 465.376 509.029 470.337 515.644 476.951C530.94 492.041 537.554 512.918 535.487 532.761C535.349 534.139 535.028 535.517 534.706 536.895C534.545 537.584 534.385 538.273 534.247 538.962C533.627 541.236 533.213 543.303 532.8 545.577C532.18 549.917 531.56 554.465 531.146 558.805Z" fill="white"/>
<path d="M626.561 424.591C594.567 424.591 568.631 398.654 568.631 366.66C568.631 334.666 594.567 308.729 626.561 308.729C658.556 308.729 684.492 334.666 684.492 366.66C684.492 398.654 658.556 424.591 626.561 424.591Z" fill="white"/>
<path d="M244.218 557.004C244.218 588.998 270.155 614.935 302.149 614.935C334.143 614.935 360.08 588.998 360.08 557.004C360.08 525.01 334.143 499.073 302.149 499.073C270.155 499.073 244.218 525.01 244.218 557.004Z" fill="white"/>
</mask>
<g mask="url(#mask0_13_2)">
<path d="M491.932 487.422C515.289 513.674 514.668 554.394 490.484 580.025C463.613 608.343 418.965 608.964 391.681 581.472C387.547 577.338 383.825 572.584 380.932 567.83C376.798 560.802 374.111 553.36 372.664 545.712C372.251 543.852 372.044 541.992 371.837 540.131C371.217 533.517 369.977 527.109 367.29 521.115C363.983 513.053 359.022 505.612 352.407 498.998C336.284 482.875 314.167 476.467 293.29 479.568C289.983 479.981 286.882 480.808 283.575 481.841C279.234 482.668 274.686 483.289 270.346 483.496C233.139 486.596 195.106 473.781 166.581 445.462C113.872 392.753 115.319 306.144 171.129 255.295C220.531 210.028 297.011 209.615 346.826 253.849C379.278 282.787 393.954 323.508 390.854 363.195C390.44 367.535 389.82 372.083 389.2 376.423C388.787 378.697 388.373 380.764 387.753 383.038C387.34 385.105 386.719 387.172 386.513 389.239C384.446 409.082 391.061 429.959 406.356 445.048C412.971 451.663 420.412 456.624 428.474 459.931C434.468 462.412 441.082 463.652 447.49 464.479C449.351 464.686 451.211 464.892 453.071 465.305C460.719 466.752 468.161 469.44 475.188 473.574C481.183 477.088 486.971 481.635 491.932 487.422ZM360.079 557.004C360.079 588.999 334.143 614.935 302.148 614.935C270.154 614.935 244.218 588.998 244.218 557.004C244.218 525.01 270.154 499.073 302.148 499.073C334.143 499.073 360.079 525.01 360.079 557.004ZM755.418 476.538C808.127 529.247 806.681 615.856 750.871 666.705C701.469 711.972 624.989 712.385 575.174 668.151C542.722 639.213 528.046 598.492 531.146 558.805C531.56 554.465 532.18 549.917 532.8 545.577C533.213 543.303 533.627 541.236 534.247 538.962C534.66 536.896 535.28 534.828 535.486 532.761C537.553 512.918 530.939 492.041 515.644 476.952C509.029 470.337 501.588 465.376 493.526 462.069C487.532 459.588 480.918 458.348 474.51 457.521C472.649 457.314 470.789 457.108 468.929 456.695C461.281 455.248 453.839 452.56 446.812 448.426C440.817 444.912 435.029 440.365 430.068 434.578C406.711 408.326 407.331 367.605 431.516 341.974C458.387 313.656 503.035 313.037 530.319 340.528C534.453 344.662 538.174 349.416 541.067 354.17C545.201 361.198 547.889 368.64 549.336 376.288C549.749 378.148 549.956 380.008 550.163 381.868C550.783 388.482 552.023 394.891 554.71 400.885C558.017 408.946 562.978 416.387 569.593 423.002C585.716 439.124 607.833 445.533 628.71 442.432C632.017 442.019 635.118 441.192 638.425 440.159C642.765 439.332 647.313 438.711 651.653 438.504C688.86 435.404 726.893 448.22 755.418 476.538ZM684.492 366.66C684.492 398.654 658.555 424.59 626.561 424.59C594.566 424.59 568.63 398.654 568.63 366.66C568.63 334.666 594.567 308.729 626.561 308.729C658.555 308.729 684.492 334.666 684.492 366.66Z" fill="white"/>
</g>
</svg>
